<svg version="1.0" xmlns="http://www.w3.org/2000/svg" preserveAspectRatio="xMidYMid meet" viewBox="192.93 194.93 643.12 653">
 <g fill="#17313c">
  <path d="M 501 847.1 c -9.3 -2.9 -18.7 -9.8 -23.8 -17.3 -1.3 -2.1 -2.6 -3.8 -2.7 -3.8 -2 0 -24.6 -3.5 -32 -5 -36.7 -7.4 -71.3 -21.2 -107 -42.7 -15.1 -9 -15.1 -9 -53 -9.8 -42.3 -0.8 -42 -0.7 -45.1 -7.7 -2.1 -4.6 -2.1 -8.6 0 -12.6 1.9 -3.6 2.6 -3.8 13.3 -4.7 6.1 -0.5 8.3 -1.1 8.3 -2.1 0 -1.7 11.7 -1.9 32.5 -0.4 62.2 4.4 141.2 23.6 182.3 44.4 6.7 3.4 7.2 3.5 7.2 1.6 0 -2.5 -5.7 -6.2 -20.9 -13.6 -42.9 -20.8 -103.9 -38.2 -177.6 -50.8 -16.1 -2.7 -19.9 -3.7 -19.7 -4.9 0.2 -1 -1 -1.7 -3.5 -2.2 -6 -1.1 -7.3 -2.2 -7.3 -6 0 -1.9 0.5 -4.5 1.1 -5.8 0.9 -2.1 0.3 -3.5 -5.3 -12.3 -15.7 -24.3 -24.8 -41.7 -34.2 -65.7 -9.4 -23.9 -16.4 -53.4 -19.6 -82.6 -1.4 -12.4 -1.4 -45.9 0 -60.2 5.7 -58.9 29.3 -116.8 67.8 -166.4 10.4 -13.4 37.2 -40.5 50.2 -50.6 49.4 -38.9 108.9 -63.3 170.5 -69.9 14.8 -1.6 51.7 -1.3 67.1 0.5 61.8 7.2 118.4 31.1 169.7 71.8 13.5 10.6 36 33.5 47.1 47.7 38.6 49.5 63.3 109.7 68.6 166.4 1.4 15.2 1.4 45.5 -0.1 59.9 -5 51.5 -23.5 102.7 -53.1 147 -6.9 10.2 -7.7 12 -6.7 13.8 1.5 2.9 1.4 9 -0.2 10 -0.8 0.5 -3.8 1.3 -6.7 2 -3.9 0.8 -5.2 1.5 -4.8 2.5 0.6 1.5 0.6 1.5 -13.4 3.9 -80.1 13.6 -163.7 38.5 -196.7 58.5 -3.6 2.2 -6.9 4 -7.4 4 -0.5 0 -0.9 1.1 -0.9 2.5 0 1.4 0.2 2.5 0.4 2.5 0.2 0 4.8 -2.2 10.2 -4.9 34.9 -17.3 105.9 -35.4 162.4 -41.5 7.4 -0.8 21.5 -1.8 31.3 -2.2 15.4 -0.6 17.7 -0.5 17.7 0.8 0 1.2 2 1.7 9.3 2.2 11.7 0.9 12.4 1.1 14.2 4.6 2.1 4 1.9 8.3 -0.5 13 -3.4 6.7 -3.4 6.7 -44.5 7.5 -41.9 0.8 -36.4 -0.2 -55 11 -41.9 25.3 -82 39 -133.8 46 -4.3 0.6 -5.1 1.1 -8.8 6.1 -8 10.8 -20.1 16.5 -35.1 16.3 -5.1 0 -10.4 -0.4 -11.8 -0.8 z  m 13.8 -55.3 c 0.6 -0.8 1.2 -10.1 1.4 -22.8 0.5 -24.5 0.5 -24.4 10.8 -45.8 5.9 -12.2 5.9 -12.3 4 -14.2 -1.8 -1.8 -3.4 -2 -17.9 -2 -14 0 -16.1 0.2 -18.2 1.9 -2.3 1.8 -2.3 1.8 3 12.7 10.6 21.7 10.5 21 11.1 46 0.4 16.6 0.8 22.5 1.9 23.7 1.6 2 2.5 2.1 3.9 0.5 z  m 58.7 -48.4 c 34.2 -14.2 95.1 -30.8 148 -40.4 12.7 -2.3 24 -4.3 25.2 -4.6 2.3 -0.4 2.3 -0.4 -0.6 -8.2 -3.2 -8.8 -2 -8.4 -16.1 -5.6 -25.5 5.1 -63.3 15.2 -88.5 23.7 -39.1 13.3 -75.4 31.1 -93.6 46 -2.7 2.3 -1.5 1.8 6.6 -2.2 5.5 -2.7 14.1 -6.6 19 -8.7 z  m -95.5 11.1 c 0 -0.2 -5.5 -4.1 -12.2 -8.5 -29 -19.2 -78 -38.8 -129.6 -51.9 -18.2 -4.6 -47.7 -11.1 -50.6 -11.1 -1.4 0 -6.9 14.1 -5.9 15 0.4 0.4 7.1 1.7 14.8 2.9 64 10.1 139.1 31.6 175.2 50 8.7 4.4 8.3 4.3 8.3 3.6 z  m -15.8 -42.4 c -4.9 -4.5 -22.9 -17.4 -35.2 -25.3 -27.1 -17.4 -61.6 -35.6 -91 -48.1 -15.7 -6.6 -12.4 -8 -24.9 10.3 -7.9 11.5 -7.9 11.5 12.5 16.3 54.8 12.8 100.2 28.3 129.9 44.2 6.6 3.5 12.2 6.4 12.5 6.4 0.3 0 -1.4 -1.7 -3.8 -3.8 z  m 142.2 -17 c 32.9 -12.8 88.8 -29 118.8 -34.3 1.3 -0.2 -0.5 -3.4 -8 -14 -5.3 -7.6 -10 -13.8 -10.4 -13.8 -0.4 0 -7.2 2.7 -15 6.1 -28.5 12.2 -64.1 31.1 -90.8 48.3 -14.4 9.3 -36 24.6 -38 27.1 -0.8 1 5.2 -1.7 13.4 -5.9 8.1 -4.1 21.6 -10.2 30 -13.5 z  m -73.4 -13.5 c 0 -3.2 -2.6 -3.7 -19.1 -3.4 -16.1 0.3 -16.4 0.3 -16.7 2.6 -0.3 2.2 -0.3 2.2 17.7 2.2 14.7 0 18.1 -0.3 18.1 -1.4 z  m -13.2 -42.8 c -0.3 -15.3 -0.3 -15.3 -5.5 -15.6 -5.3 -0.3 -5.3 -0.3 -5.3 15.2 0 15.6 0 15.6 5.5 15.6 5.6 0 5.6 0 5.3 -15.2 z  m -35.8 -13.7 c 0 -20.9 0.3 -26.1 1.4 -27 0.8 -0.6 3.7 -1.4 6.5 -1.8 2.8 -0.3 5.1 -0.9 5.1 -1.2 0.2 -4.4 3.5 -24.5 5.5 -33.3 3.2 -13.8 12.9 -43.2 18.3 -55.4 32.5 -73.9 86.6 -133.1 150 -164.2 8.3 -4.1 15.2 -7.7 15.2 -8.1 0 -0.3 1.5 -7.9 3.4 -16.8 3.3 -16.2 3.3 -16.2 -7.4 -12.4 -35.3 12.6 -73.4 33.8 -102.4 57 -30.1 23.9 -58.5 56.7 -79.8 92.1 -21 34.8 -33.9 68.7 -39.4 103 -2.3 14.1 -2.3 35.8 0 47.5 4.8 25.3 14.7 46.5 21.5 46.5 2.1 0 2.1 -0.3 2.1 -25.9 z  m 71.9 18.1 c 7.2 -4.7 23.4 -20.3 32.7 -31.5 4.1 -4.8 7.4 -9 7.4 -9.2 0 -0.2 -1.9 0.3 -4.2 1.1 -2.4 0.9 -13.3 4.7 -24.3 8.6 -11 3.8 -20.6 7.7 -21.2 8.6 -0.9 1.1 -1.3 5.7 -1.3 14.5 0 12.9 0 12.9 2.7 12.2 1.4 -0.3 5.2 -2.3 8.2 -4.3 z  m 14.6 -61 c 7.7 -2.8 21.4 -7.6 30.4 -10.8 18.9 -6.6 17.1 -5 28.1 -26.6 8.1 -15.7 13.9 -30.6 19.5 -49.6 2.5 -8.6 5 -17 5.6 -18.6 0.5 -1.6 0.7 -3.1 0.4 -3.4 -0.2 -0.3 -8.7 2.5 -18.8 6.1 -20.9 7.7 -27 8.5 -32.1 4.4 -2.5 -2 -2.9 -3.1 -3.3 -9.3 -0.8 -10.9 -0.7 -11 33.9 -23.9 19.4 -7.2 28.9 -11.3 29.2 -12.4 0.3 -0.9 3.2 -13.5 6.6 -28.1 3.3 -14.6 6.7 -29.2 7.5 -32.5 0.7 -3.3 1.2 -6.1 1 -6.3 -0.6 -0.7 -10.1 4.7 -20.5 11.5 -43 28.4 -80.2 72.7 -105 124.7 -7.5 15.8 -8.2 17.6 -7.2 17.6 0.4 0 7.5 -2.5 15.7 -5.6 8.3 -3 23.1 -8.5 33 -12.1 9.9 -3.6 20.4 -7.3 23.2 -8.4 8 -2.9 13.2 -2.2 18.1 2.3 1.9 1.8 2.2 3.2 2.2 8.9 0 6.1 -0.3 7 -2.8 9.6 -1.6 1.5 -4.6 3.4 -6.8 4.2 -7.5 2.6 -86.8 31.9 -92.6 34.2 -3.1 1.2 -3.9 3.7 -8.2 23 -3.1 13.8 -3.1 14.6 -0.8 15.1 1.7 0.4 18.9 -5.1 43.7 -14 z  m 170 -12.2 c 1.5 -2.9 0.6 -5.4 -2.9 -8.2 -2.8 -2.3 -3.8 -2.2 -7 0.7 -3.5 3.2 -3.4 6.7 0.4 9.9 2.7 2.2 3.4 2.4 5.6 1.4 1.4 -0.7 3.2 -2.4 3.9 -3.8 z  m -437.1 -8.9 c 0.6 -5 1.2 -6.4 3.6 -8.5 1.7 -1.4 5 -2.8 7.5 -3.1 5.3 -0.8 8.5 -2.9 7 -4.4 -0.6 -0.6 -3.5 -1.5 -6.5 -2.1 -7.2 -1.3 -10.3 -4.6 -11.9 -12.7 -2.1 -10.7 -5 -10.5 -7.1 0.5 -1.5 7.6 -4.2 10.3 -12.3 12.1 -3.1 0.7 -6 1.7 -6.3 2.3 -0.9 1.4 2.3 3.8 5 3.8 7.9 0 12.7 4.4 14.1 12.5 0.4 2.2 1.1 5.3 1.8 6.9 1.1 2.9 1.1 2.9 2.7 0.8 1 -1.1 2 -4.8 2.4 -8.1 z  m 416 -35.3 c 1.5 -2.1 1.4 -2.4 -0.3 -4.2 -3.6 -3.5 -7.9 0.7 -4.6 4.4 2.3 2.5 3 2.5 4.9 -0.2 z  m -336.3 -34.2 c 1.3 -2.9 0 -5.8 -3.7 -8.2 -3 -2 -6.4 -0.9 -8.9 3 -1.9 2.9 -1.1 5.2 3.1 8.5 2.4 1.9 2.8 1.9 5.5 0.5 1.7 -0.8 3.5 -2.5 4 -3.8 z  m 388.3 -18.4 c 0.2 -1 0.8 -4.2 1.1 -7.2 1.3 -9.8 4.4 -13 14.6 -14.4 10 -1.5 9.7 -4.8 -0.7 -7.7 -9.6 -2.6 -13 -6.3 -13.9 -15.2 -0.4 -3.7 -1.3 -7.4 -2.1 -8.4 -1.2 -1.6 -1.4 -1.7 -2.9 -0.2 -0.8 0.8 -2 4.4 -2.6 7.9 -0.5 3.5 -1.4 7.1 -1.9 8 -1.8 3.5 -7 6.8 -12 7.9 -2.9 0.6 -6.1 1.6 -7.2 2.2 -1.8 1 -1.9 1.2 -0.3 2.9 0.9 1 3.7 2.1 6.3 2.5 10.5 1.6 13.4 4.3 15.2 14.6 0.6 3.5 1.6 7.1 2.1 8.1 1.1 2 3.6 1.4 4.3 -1 z  M276.9 446.9 C 276.9 438.9 270.4 432.4 262.5 432.4 254.5 432.4 248 438.9 248 446.9 248 454.8 254.5 461.3 262.5 461.3 270.4 461.3 276.9 454.8 276.9 446.9 Z M267.6 460.1  m 210.2 -49.3 c 2.2 -2.9 6.6 -8.4 9.9 -12.1 5.8 -6.8 5.8 -6.8 -2.4 -15.3 -6.7 -6.9 -9.1 -10.2 -12.7 -17.7 -5.9 -12.4 -7.1 -17.8 -7 -33.2 0 -15.4 1.5 -22.2 7.5 -34.3 11.8 -23.6 35.8 -38.1 66.4 -40.1 10 -0.6 10 -0.6 5 -3.2 -17.8 -9.3 -40.1 -11.3 -59.8 -5.5 -35.8 10.6 -61.7 40.4 -66.6 76.9 -3.3 24.3 10.9 57.2 32.6 75.3 6 4.9 20.7 14.4 22.4 14.4 0.4 0 2.5 -2.4 4.7 -5.2 z  m -92.5 -5.6 c 1.6 -1.7 1.5 -2 -0.7 -4.1 -2.4 -2.3 -2.4 -2.3 -4.6 -0.1 -2.1 2.1 -2.1 2.3 -0.4 4.1 2.1 2.4 3.6 2.4 5.7 0.1 z  m -54.2 -11.1 c 3.3 -3.4 3.5 -4.8 1.1 -7.7 -3.2 -3.8 -6 -4.8 -8.7 -3 -5.2 3.4 -5.5 7.9 -0.8 11.6 3.4 2.7 4.9 2.5 8.4 -0.9 z "/>
 </g>
 <g fill="#ffffff">
  <path d="M 508.4 794.9 c -1.7 -1.9 -2 -4.3 -2.4 -24.3 -0.6 -24.9 -0.5 -24.4 -10.9 -45.6 -5.8 -11.8 -6.6 -16.9 -2.9 -19.4 1.8 -1.3 5.6 -1.6 21 -1.6 17.5 0 18.9 0.1 20.8 2 3.2 3.2 2.4 6.9 -4 20.1 -10.3 21.5 -10.3 21.3 -10.8 45.9 -0.3 17.7 -0.6 21.8 -1.9 23.3 -2.2 2.3 -6.6 2.2 -8.9 -0.4 z "/>
  <path d="M 473.5 789.9 c -44.8 -24 -145.6 -46.8 -206.7 -46.9 -6.8 0 -7.8 -0.2 -7.8 -1.7 0.1 -2.8 3.7 -24.3 4.2 -24.9 0.3 -0.2 9.9 1.1 21.4 3.1 74.5 12.6 135.4 30 178.5 50.9 17.4 8.4 20.6 10.7 21.1 15.1 0.5 4.2 -0.1 9.6 -1.1 9.4 -0.3 -0.1 -4.6 -2.3 -9.6 -5 z "/>
  <path d="M 542 788 c 0 -3.8 0.4 -7 0.9 -7 0.5 0 3.8 -1.8 7.4 -4 20.3 -12.3 68.2 -29.6 113.6 -40.9 33.4 -8.4 97.4 -21.1 98.8 -19.7 0.6 0.5 4.2 21.9 4.3 24.7 0 1.4 -2.2 1.7 -16.2 2.3 -36 1.6 -74.5 7.5 -116.8 18.2 -32.8 8.2 -58.2 17 -78.3 27 -7 3.5 -13 6.4 -13.2 6.4 -0.3 0 -0.5 -3.1 -0.5 -7 z "/>
  <path d="M 473.5 757.3 c -39.1 -20.6 -110 -41.5 -178.5 -52.8 -22.2 -3.6 -20.3 -2.9 -19.5 -7.2 0.7 -4 5.3 -16.2 6.6 -17.7 1 -1.2 29.1 4.4 55.4 11.1 52.9 13.3 101.9 32.8 131 52.1 14.7 9.7 15.7 10.8 15.3 15.9 -0.3 3.9 -0.3 3.9 -10.3 -1.4 z "/>
  <path d="M 542 758.2 c 0 -4.5 0.2 -5 4.8 -8.4 20.7 -15.6 53.4 -31.5 91.7 -44.5 34.2 -11.5 89.4 -25.3 102.8 -25.7 5 -0.1 5 -0.1 8.3 8.9 4.3 11.7 4.3 12.3 -0.3 13 -65.7 11 -133.5 28.6 -172.8 44.9 -9.5 4 -27.6 12.9 -31 15.2 -3.1 2.2 -3.5 1.7 -3.5 -3.4 z "/>
  <path d="M 556.7 717.8 c 0.3 -2.9 1.1 -5.9 1.6 -6.6 1.7 -2.1 23.9 -18 37.7 -26.8 27.6 -17.8 63.8 -36.9 94.5 -49.9 15.9 -6.8 15.9 -6.8 18.5 -3.5 6.2 8.1 21 29.6 21 30.7 0 0.7 -1 1.5 -2.2 1.7 -45.8 9.7 -86.1 21.3 -120.4 34.7 -13.8 5.4 -33.1 14.6 -46.1 22 -5.2 3 -5.2 3 -4.6 -2.3 z "/>
  <path d="M 454 714.4 c -30.1 -16.5 -69.9 -30.6 -122.5 -43.4 -13.2 -3.2 -26 -6.2 -28.4 -6.7 -2.5 -0.5 -4.6 -1.3 -4.8 -1.9 -0.8 -2.3 20.9 -33.4 23.3 -33.4 2.6 0 30.6 12.3 51.4 22.6 33.2 16.4 71.6 40.1 90.8 56.2 5 4.2 5.2 4.6 5.2 9.3 0 2.7 -0.3 4.8 -0.7 4.8 -0.5 -0.1 -6.9 -3.5 -14.3 -7.5 z "/>
  <path d="M 492.2 680.8 c 0.3 -5.3 0.3 -5.3 19.7 -5.6 13.4 -0.2 19.8 0.1 20.7 0.9 0.8 0.7 1.4 3 1.4 5.5 0 4.4 0 4.4 -21.1 4.4 -21 0 -21 0 -20.7 -5.2 z "/>
  <path d="M 504 638.5 c 0 -18.6 0 -18.6 8.3 -18.3 8.2 0.3 8.2 0.3 8.5 18.6 0.2 18.2 0.2 18.2 -8.3 18.2 -8.5 0 -8.5 0 -8.5 -18.5 z "/>
  <path d="M 471.7 650.8 c -5.8 -6.3 -12.7 -24.3 -16.3 -43.3 -2.4 -12.3 -2.4 -38.1 -0.1 -53 8.9 -55.9 38.4 -113 84.5 -163.2 30.7 -33.4 68.6 -59.9 114.4 -80.1 13.7 -6.1 39.7 -15.6 40.5 -14.8 0.5 0.4 -7.5 40.7 -8.1 41.4 -0.2 0.2 -7.1 3.6 -15.2 7.6 -57.4 28.2 -108.6 81.1 -140.9 145.5 -11.1 22.2 -21.7 51.3 -27 73.9 -2.1 9.2 -5.4 29.2 -5.5 33.7 0 0.6 -2.2 1 -4.9 1.1 -8.4 0.1 -8.1 -0.9 -8.1 28.5 0 25.9 0 25.9 -5.1 25.9 -4.5 0 -5.5 -0.4 -8.2 -3.2 z "/>
  <path d="M 540.6 651.3 c -1.2 -3.1 -0.6 -31.9 0.7 -33.5 1.1 -1.6 57.2 -21.8 60.3 -21.8 2 0 1.9 0.4 -2.3 6.2 -10.6 15.1 -31.7 37 -42.3 44 -3 1.9 -7.8 4.3 -10.7 5.1 -4.6 1.4 -5.2 1.4 -5.7 0 z "/>
  <path d="M390.8 598.9 C 390.8 601.5 388.6 603.7 385.9 603.7 383.2 603.7 381 601.5 381 598.9 381 596.2 383.2 594 385.9 594 388.6 594 390.8 596.2 390.8 598.9 Z M382.7 602.2 "/>
  <path d="M 521.2 599.3 c -2.1 -0.4 -2.3 -0.8 -1.7 -5.1 0.9 -6 5.2 -26.1 7.1 -32.8 1.1 -4 2.1 -5.4 4.2 -6.3 5.8 -2.3 85.1 -31.6 92.6 -34.2 11.6 -4.1 13.1 -15.7 2.5 -19.7 -1.9 -0.8 -3.8 -0.5 -7.5 0.8 -2.7 1 -13 4.7 -22.9 8.3 -9.9 3.6 -27.2 9.9 -38.5 14.1 -11.2 4.1 -20.5 7.4 -20.6 7.3 -0.5 -0.5 6.3 -16.3 12.1 -28.4 24.8 -51.6 62.2 -95.8 105 -123.9 11.6 -7.5 27.2 -16 28 -15.2 0.5 0.4 -5.5 28 -13 59.4 -1.9 8.2 -3.7 15.9 -4 17 -0.4 1.8 -5.4 4 -29.2 12.9 -32.9 12.2 -35 13.5 -33.9 20.9 0.7 4.7 4.6 8.6 8.6 8.6 1.3 0 12.5 -3.7 24.8 -8.1 12.2 -4.5 22.5 -7.9 22.8 -7.6 1.2 1.1 -11.2 42.7 -17.2 57.7 -4.6 11.7 -14.3 31.3 -19.2 39.1 -2.9 4.5 -3 4.6 -19.3 10.3 -9 3.2 -22.7 8 -30.4 10.8 -37.9 13.6 -43.9 15.3 -50.3 14.1 z "/>
  <path d="M743.1 567.4 C 743.1 573.1 738.4 577.8 732.6 577.8 726.9 577.8 722.2 573.1 722.2 567.4 722.2 561.6 726.9 556.9 732.6 556.9 738.4 556.9 743.1 561.6 743.1 567.4 Z M726.2 575.5 "/>
  <path d="M 295.4 574.2 c -1.7 -1.1 -3.1 -4.3 -3.8 -9.2 -1.3 -8.5 -6.1 -13 -14.1 -13 -3.4 0 -6.5 -2.8 -6.5 -5.9 0 -3.7 1.2 -4.6 8.4 -6.4 7.8 -2.1 10.1 -4.4 11.6 -12 1.3 -6.9 3.2 -9.7 6.5 -9.7 3.3 0 5.2 2.8 6.8 9.9 1.9 8 4.5 10.7 11.6 12.1 8.8 1.6 11.6 5.9 6.6 9.8 -1.4 1.1 -4.5 2.3 -7 2.6 -2.5 0.4 -5.8 1.8 -7.5 3.2 -2.4 2.1 -3 3.5 -3.6 8.5 -0.9 8.4 -4.9 12.9 -9 10.1 z "/>
  <path d="M722.1 523.7 C 722.1 527.9 718.8 531.2 714.7 531.2 710.6 531.2 707.2 527.9 707.2 523.7 707.2 519.6 710.6 516.3 714.7 516.3 718.8 516.3 722.1 519.6 722.1 523.7 Z M709.1 528.4 "/>
  <path d="M385.2 489.2 C 385.2 495.1 380.5 499.8 374.6 499.8 368.8 499.8 364 495.1 364 489.2 364 483.4 368.8 478.6 374.6 478.6 380.5 478.6 385.2 483.4 385.2 489.2 Z M367.4 496.6 "/>
  <path d="M 763.1 478.1 c -1.1 -1.1 -2.3 -4.6 -3.1 -9 -1.5 -9 -4.3 -12.4 -11.8 -14 -2.9 -0.6 -5.9 -1.1 -6.7 -1.1 -1.6 0 -5.5 -4.7 -5.5 -6.6 0 -2.6 3.8 -5.2 9.4 -6.4 5.5 -1.1 10.7 -4.4 12.6 -8 0.5 -0.9 1.4 -4.5 1.9 -8 1.2 -7.2 3.2 -10 7.2 -10 3.8 0 5.5 2.9 6.4 10.8 0.9 7.9 4.5 12.6 10.8 14.2 9.1 2.4 10.5 3.1 11.7 6 0.9 2.1 0.9 3.4 0.1 4.9 -1.1 1.9 -6.5 4.1 -10.4 4.1 -3.3 0 -8.7 3.2 -10.2 5.9 -0.7 1.5 -1.7 5.6 -2.1 9 -1 9.1 -5.7 12.8 -10.3 8.2 z "/>
  <path d="M280.7 446.9 C 280.7 456.9 272.6 465.1 262.5 465.1 252.4 465.1 244.3 456.9 244.3 446.9 244.3 436.8 252.4 428.6 262.5 428.6 272.6 428.6 280.7 436.8 280.7 446.9 Z M254.2 462.9 "/>
  <path d="M 466.5 417 c -28.1 -14 -47.2 -41.6 -51.7 -74.5 -1.9 -14.1 1.7 -33.8 8.8 -47.8 11.8 -23.2 32.9 -40.8 58.1 -48.3 6.8 -2 11.7 -2.7 22 -3.1 14.4 -0.6 21 0.2 33.3 4.3 7 2.2 22.1 10.2 23.4 12.3 0.3 0.5 -5.9 1.1 -14.2 1.4 -15.7 0.6 -23.3 2.1 -35.1 7.2 -19.5 8.2 -35.4 26.8 -40.8 47.5 -2 7.9 -2.2 24.2 -0.4 32 0.7 3 3.3 9.6 5.7 14.6 3.4 7.3 5.9 10.8 12.1 17.1 4.3 4.4 8.9 8.6 10.2 9.4 2.3 1.5 2.3 1.5 -7.1 12.4 -5.1 6.1 -10.7 12.9 -12.3 15.2 -1.7 2.4 -3.2 4.3 -3.5 4.3 -0.3 0 -4.1 -1.8 -8.5 -4 z "/>
  <path d="M389.9 403.4 C 389.9 407.5 386.6 410.9 382.4 410.9 378.3 410.9 375 407.5 375 403.4 375 399.3 378.3 395.9 382.4 395.9 386.6 395.9 389.9 399.3 389.9 403.4 Z M377.6 408.9 "/>
  <path d="M337.1 389.6 C 337.1 395.5 332.3 400.3 326.4 400.3 320.5 400.3 315.8 395.5 315.8 389.6 315.8 383.7 320.5 378.9 326.4 378.9 332.3 378.9 337.1 383.7 337.1 389.6 Z M318.9 397.1 "/>
  <path d="M750.8 363.7 C 750.8 366.4 748.7 368.5 746 368.5 743.4 368.5 741.2 366.4 741.2 363.7 741.2 361.1 743.4 358.9 746 358.9 748.7 358.9 750.8 361.1 750.8 363.7 Z M743 367 "/>
 </g>
</svg>